<svg height="512" viewBox="0 0 128 128" width="512" xmlns="http://www.w3.org/2000/svg"><g id="Circle_Grid" data-name="Circle Grid"><circle cx="64" cy="64" fill="#69b0ee" r="64"/></g><g id="icon"><path d="m23 41.107v57.915a3.525 3.525 0 0 0 3.526 3.525h74.948a3.525 3.525 0 0 0 3.526-3.525v-57.915z" fill="#eeefee"/><path d="m101.474 25.453h-74.948a3.525 3.525 0 0 0 -3.526 3.525v13.8h82v-13.8a3.525 3.525 0 0 0 -3.526-3.525z" fill="#62667c"/><circle cx="72.981" cy="34.113" fill="#2cbfae" r="3.174"/><circle cx="84.205" cy="34.113" fill="#f6c863" r="3.174"/><circle cx="95.428" cy="34.113" fill="#ef5261" r="3.174"/><path d="m96.425 87.372h-64.85a32.425 32.425 0 1 1 64.85 0z" fill="#dbd8dd"/><g fill="#ef5261"><path d="m63.512 56.409h.977v3h-.977z"/><path d="m55.886 57.416h.977v3h-.977z" transform="matrix(.966 -.259 .259 .966 -13.328 16.598)"/><path d="m48.781 60.362h.977v3h-.977z" transform="matrix(.866 -.5 .5 .866 -24.33 32.923)"/><path d="m42.681 65.047h.977v3h-.977z" transform="matrix(.707 -.707 .707 .707 -34.412 50.017)"/><path d="m38.001 71.151h.977v3h-.977z" transform="matrix(.5 -.866 .866 .5 -43.672 69.659)"/><path d="m35.061 78.258h.977v3h-.977z" transform="matrix(.259 -.966 .966 .259 -50.692 93.453)"/><path d="m91.98 78.235h.977v3h-.977z" transform="matrix(.259 .966 -.966 .259 145.554 -30.219)"/><path d="m89.033 71.13h.977v3h-.977z" transform="matrix(.5 .866 -.866 .5 107.661 -41.213)"/><path d="m84.349 65.03h.977v3h-.977z" transform="matrix(.707 .707 -.707 .707 71.892 -40.503)"/><path d="m78.245 60.35h.977v3h-.977z" transform="matrix(.866 .5 -.5 .866 41.473 -31.08)"/><path d="m71.138 57.41h.977v3h-.977z" transform="matrix(.966 .259 -.259 .966 17.688 -16.531)"/><path d="m67.89 83.039-4.189-1.46 8.007-16.207z"/></g><path d="m70.126 87.372h-12.252a6.126 6.126 0 1 1 12.252 0z" fill="#575b6d"/></g></svg>