<svg height="512" viewBox="0 0 128 128" width="512" xmlns="http://www.w3.org/2000/svg"><g id="Circle_Grid" data-name="Circle Grid"><circle cx="64" cy="64" fill="#ea8953" r="64"/></g><g id="icon"><rect fill="#575b6d" height="69.186" rx="4.165" width="42.343" x="42.829" y="29.407"/><path d="m44.911 37.244h38.178v51.978h-38.178z" fill="#69b0ee"/><circle cx="64.347" cy="93.907" fill="#828a9e" r="2.256"/><rect fill="#828a9e" height="1.735" rx=".868" width="8.635" x="59.682" y="32.46"/><g fill="#eeefee"><circle cx="64" cy="58.025" r="6.199"/><path d="m75.631 74.64h-23.262a11.631 11.631 0 1 1 23.262 0z"/><path d="m96.017 83.643a1.793 1.793 0 0 1 -.079-2.453 26.07 26.07 0 0 0 0-34.38 1.793 1.793 0 0 1 .079-2.453 1.8 1.8 0 0 1 2.621.079 29.676 29.676 0 0 1 0 39.128 1.8 1.8 0 0 1 -2.621.079z"/><path d="m89.645 77.274a1.809 1.809 0 0 1 -.091-2.437 17.093 17.093 0 0 0 0-21.674 1.808 1.808 0 0 1 .091-2.438 1.789 1.789 0 0 1 2.633.1 20.683 20.683 0 0 1 0 26.353 1.789 1.789 0 0 1 -2.633.096z"/><path d="m31.983 83.643a1.793 1.793 0 0 0 .079-2.453 26.07 26.07 0 0 1 0-34.38 1.793 1.793 0 0 0 -.079-2.453 1.8 1.8 0 0 0 -2.621.079 29.676 29.676 0 0 0 0 39.128 1.8 1.8 0 0 0 2.621.079z"/><path d="m38.355 77.274a1.809 1.809 0 0 0 .091-2.437 17.093 17.093 0 0 1 0-21.674 1.808 1.808 0 0 0 -.091-2.438 1.789 1.789 0 0 0 -2.633.1 20.683 20.683 0 0 0 0 26.353 1.789 1.789 0 0 0 2.633.096z"/></g></g></svg>