<svg height="512" viewBox="0 0 128 128" width="512" xmlns="http://www.w3.org/2000/svg"><g id="Circle_Grid" data-name="Circle Grid"><circle cx="64" cy="64" fill="#3b5059" r="64"/></g><g id="icon"><path d="m106 67.585a13.929 13.929 0 0 1 -13.809 14.05h-56.382a14.079 14.079 0 0 1 -3-27.77 19.08 19.08 0 0 1 17.955-24.359 18.682 18.682 0 0 1 16.923 10.909 13.656 13.656 0 0 1 9.432-3.79 13.93 13.93 0 0 1 13.808 14.057 14.239 14.239 0 0 1 -.3 2.942 11.8 11.8 0 0 1 1.567-.1 13.931 13.931 0 0 1 13.806 14.061z" fill="#69b0ee"/><circle cx="62.619" cy="81.635" fill="#ef5261" r="16.858"/><circle cx="62.619" cy="81.635" fill="#eeefee" r="13.268" transform="matrix(.924 -.383 .383 .924 -26.474 30.177)"/><path d="m60.044 88.89-6.047-6.047 2.208-2.207 3.839 3.839 8.99-8.991 2.207 2.208z" fill="#ef5261"/></g></svg>