<svg height="512" viewBox="0 0 128 128" width="512" xmlns="http://www.w3.org/2000/svg"><g id="Circle_Grid" data-name="Circle Grid"><circle cx="64" cy="64" fill="#f6c863" r="64"/></g><g id="icon"><rect fill="#575b6d" height="84" rx="5.057" width="51.41" x="29.39" y="22"/><path d="m31.918 31.515h46.353v63.107h-46.353z" fill="#69b0ee"/><circle cx="55.516" cy="100.311" fill="#828a9e" r="2.739"/><rect fill="#828a9e" height="2.107" rx="1.053" width="10.484" x="49.853" y="25.706"/><path d="m98.61 44.291v17.477a6.872 6.872 0 0 1 -6.875 6.875h-16.635l-10.328 9.336v-9.336h-5.12a6.875 6.875 0 0 1 -6.875-6.875v-17.477a6.878 6.878 0 0 1 6.875-6.875h32.083a6.874 6.874 0 0 1 6.875 6.875z" fill="#eeefee"/><g fill="#bbbbcd"><rect height="2.054" rx="1.027" width="34.628" x="58.38" y="44.739"/><rect height="2.054" rx="1.027" width="34.628" x="58.38" y="52.002"/><rect height="2.054" rx="1.027" width="34.628" x="58.38" y="59.265"/></g></g></svg>