<svg height="512" viewBox="0 0 128 128" width="512" xmlns="http://www.w3.org/2000/svg"><g id="Circle_Grid" data-name="Circle Grid"><circle cx="64" cy="64" fill="#ea8953" r="64"/></g><g id="icon"><path d="m30.739 32.136h66.522a3.6 3.6 0 0 1 3.6 3.6v47.64a0 0 0 0 1 0 0h-73.718a0 0 0 0 1 0 0v-47.644a3.6 3.6 0 0 1 3.596-3.596z" fill="#62667c"/><path d="m42.875 25.394h42.251v64.725h-42.251z" fill="#69b0ee" transform="matrix(0 1 -1 0 121.756 -6.244)"/><path d="m22.8 83.376h82.4a1.8 1.8 0 0 1 1.8 1.8v3.3a5.394 5.394 0 0 1 -5.394 5.394h-75.212a5.394 5.394 0 0 1 -5.394-5.4v-3.3a1.8 1.8 0 0 1 1.8-1.794z" fill="#4f5363"/><path d="m72.68 87.309h-17.36l-2.051-3.933h21.462z" fill="#62667c"/><g fill="#eeefee"><path d="m87.162 66.264-1.629 1.629-4.138-4.139-2.897 2.897 4.135 4.134-1.629 1.629 6.996.842z"/><path d="m46.992 43.094-1.629 1.629 4.139 4.139-2.897 2.896-4.134-4.135-1.629 1.63-.842-6.997z"/><path d="m46.992 72.418-1.629-1.629 4.139-4.138-2.897-2.897-4.134 4.135-1.629-1.629-.842 6.996z"/><path d="m87.162 49.248-1.629-1.629-4.138 4.139-2.897-2.896 4.135-4.135-1.629-1.629 6.996-.842z"/></g></g></svg>