<svg height="512" viewBox="0 0 128 128" width="512" xmlns="http://www.w3.org/2000/svg"><g id="Circle_Grid" data-name="Circle Grid"><circle cx="64" cy="64" fill="#3b5059" r="64"/></g><g id="icon"><path d="m64 88.771a1.95 1.95 0 0 1 -1.95-1.95v-38.8a1.95 1.95 0 1 1 3.9 0v38.8a1.95 1.95 0 0 1 -1.95 1.95z" fill="#eeefee"/><path d="m93.657 88.771a1.95 1.95 0 0 1 -1.95-1.95v-15.727h-55.414v15.727a1.95 1.95 0 0 1 -3.9 0v-17.677a1.949 1.949 0 0 1 1.95-1.949h59.314a1.949 1.949 0 0 1 1.95 1.949v17.677a1.95 1.95 0 0 1 -1.95 1.95z" fill="#eeefee"/><rect fill="#2cbfae" height="18.673" rx="2" width="18.673" x="25.007" y="80.082"/><rect fill="#f2c55a" height="18.673" rx="2" width="18.673" x="54.664" y="80.082"/><rect fill="#69b0ee" height="18.673" rx="2" width="18.673" x="84.32" y="80.082"/><circle cx="64" cy="39.246" fill="#ef5261" r="20"/><path d="m64 55.2a15.958 15.958 0 1 1 15.958-15.955 15.976 15.976 0 0 1 -15.958 15.955zm0-29.868a13.91 13.91 0 1 0 13.91 13.91 13.926 13.926 0 0 0 -13.91-13.907z" fill="#eeefee"/></g></svg>