<svg height="512" viewBox="0 0 128 128" width="512" xmlns="http://www.w3.org/2000/svg"><g id="Circle_Grid" data-name="Circle Grid"><circle cx="64" cy="64" fill="#3b5059" r="64"/></g><g id="icon"><path d="m42.417 53.667h-2.376v-4.591a7.607 7.607 0 0 1 7.6-7.6h15.205v2.375h-15.206a5.229 5.229 0 0 0 -5.223 5.224z" fill="#eeefee"/><path d="m80.691 43.852h-13.617v-2.375h13.617a4.9 4.9 0 0 0 4.893-4.893v-7.517h2.375v7.517a7.276 7.276 0 0 1 -7.268 7.268z" fill="#eeefee"/><path d="m52.968 96.763h21.667v10.912h-21.667z" fill="#828a9e"/><path d="m82.688 76.634a26.248 26.248 0 0 0 -8.007 17.323l-10.882-.3-10.882.3a26.248 26.248 0 0 0 -8.007-17.323l17.99-24.471v18.8a5.444 5.444 0 1 0 1.792 0v-18.8z" fill="#f2c55a"/><rect fill="#9a9eaf" height="3.916" rx="1.194" width="25.217" x="51.192" y="93.161"/><path d="m34.568 47.978h13.322v13.322h-13.322z" fill="#2cbfae"/><path d="m57.138 36.003h13.322v13.322h-13.322z" fill="#ef5261"/><path d="m80.11 20.325h13.322v13.322h-13.322z" fill="#69b0ee"/></g></svg>