<svg height="512" viewBox="0 0 128 128" width="512" xmlns="http://www.w3.org/2000/svg"><g id="Circle_Grid" data-name="Circle Grid"><circle cx="64" cy="64" fill="#ea8953" r="64"/></g><g id="icon"><rect fill="#62667c" height="79.179" rx="3.734" width="82" x="23" y="24.411"/><path d="m27.515 39.799h72.971v59.276h-72.971z" fill="#eeefee"/><circle cx="77.568" cy="32.105" fill="#2cbfae" r="2.194"/><circle cx="96.878" cy="32.105" fill="#ef5261" r="2.194"/><circle cx="87.223" cy="32.105" fill="#f6c863" r="2.194"/><rect fill="#828a9e" height="3.376" rx="1.688" width="36.375" x="30.625" y="30.417"/><path d="m82 54.283v15.3a21.945 21.945 0 0 1 -7.07 16.292 22.652 22.652 0 0 1 -10.93 5.832 22.652 22.652 0 0 1 -10.931-5.827 21.945 21.945 0 0 1 -7.069-16.292v-15.3l18-7.116z" fill="#dbd8dd"/><path d="m78.12 56.92v12.67a18.089 18.089 0 0 1 -5.8 13.41 19.2 19.2 0 0 1 -8.32 4.74 19.2 19.2 0 0 1 -8.32-4.74 18.089 18.089 0 0 1 -5.8-13.41v-12.67l14.12-5.58z" fill="#2cbfae"/><path d="m78.12 56.92v12.67a18.089 18.089 0 0 1 -5.8 13.41 19.2 19.2 0 0 1 -8.32 4.74v-36.4z" fill="#16a897"/></g></svg>