<svg height="512" viewBox="0 0 128 128" width="512" xmlns="http://www.w3.org/2000/svg"><g id="Circle_Grid" data-name="Circle Grid"><circle cx="64" cy="64" fill="#3b5059" r="64"/></g><g id="icon"><path d="m31.601 33.144h30.966v2.874h-30.966z" fill="#eeefee"/><path d="m67.697 33.144h28.994v2.874h-28.994z" fill="#eeefee"/><path d="m53.106 89.221h21.395v10.775h-21.395z" fill="#828a9e"/><path d="m82.454 69.344a25.916 25.916 0 0 0 -7.907 17.106l-10.745-.3-10.746.3a25.916 25.916 0 0 0 -7.907-17.106l17.768-24.164v18.559a5.377 5.377 0 1 0 1.769 0v-18.559z" fill="#f2c55a"/><rect fill="#9a9eaf" height="3.867" rx="1.179" width="24.9" x="51.353" y="85.664"/><path d="m30 28.004h13.155v13.154h-13.155z" fill="#2cbfae"/><path d="m57.224 28.004h13.155v13.154h-13.155z" fill="#ef5261"/><path d="m84.845 28.004h13.155v13.154h-13.155z" fill="#69b0ee"/></g></svg>