<svg height="512" viewBox="0 0 128 128" width="512" xmlns="http://www.w3.org/2000/svg"><g id="Circle_Grid" data-name="Circle Grid"><circle cx="64" cy="64" fill="#2cbfae" r="64"/></g><g id="icon"><path d="m23 41.107v57.915a3.525 3.525 0 0 0 3.526 3.525h74.948a3.525 3.525 0 0 0 3.526-3.525v-57.915z" fill="#eeefee"/><path d="m101.474 25.453h-74.948a3.525 3.525 0 0 0 -3.526 3.525v13.8h82v-13.8a3.525 3.525 0 0 0 -3.526-3.525z" fill="#62667c"/><circle cx="72.981" cy="34.113" fill="#2cbfae" r="3.174"/><circle cx="84.205" cy="34.113" fill="#f6c863" r="3.174"/><circle cx="95.428" cy="34.113" fill="#ef5261" r="3.174"/><g fill="#dbd8dd"><path d="m86.573 65.564v3.316h-7.909v5.895h7.9v3.316l7.977-6.264z"/><path d="m41.427 65.564v3.316h7.909v5.895h-7.9v3.316l-7.977-6.264z"/><path d="m52.818 60.645h22.364v22.364h-22.364z"/></g></g></svg>