<svg height="512" viewBox="0 0 128 128" width="512" xmlns="http://www.w3.org/2000/svg"><g id="Circle_Grid" data-name="Circle Grid"><circle cx="64" cy="64" fill="#ea8953" r="64"/></g><g id="icon"><path d="m23 41.107v57.915a3.525 3.525 0 0 0 3.526 3.525h74.948a3.525 3.525 0 0 0 3.526-3.525v-57.915z" fill="#eeefee"/><path d="m101.474 25.453h-74.948a3.525 3.525 0 0 0 -3.526 3.525v13.8h82v-13.8a3.525 3.525 0 0 0 -3.526-3.525z" fill="#575b6d"/><circle cx="72.981" cy="34.113" fill="#2cbfae" r="3.174"/><circle cx="84.205" cy="34.113" fill="#f6c863" r="3.174"/><circle cx="95.428" cy="34.113" fill="#ef5261" r="3.174"/><path d="m35.354 49.39h8.067v46.875h-8.067z" fill="#2cbfae"/><path d="m51.762 59.583h8.067v36.681h-8.067z" fill="#f2c55a"/><path d="m68.17 70.333h8.067v25.931h-8.067z" fill="#69b0ee"/><path d="m84.579 81.75h8.067v14.515h-8.067z" fill="#ef5261"/></g></svg>