<svg height="512" viewBox="0 0 128 128" width="512" xmlns="http://www.w3.org/2000/svg"><g id="Circle_Grid" data-name="Circle Grid"><circle cx="64" cy="64" fill="#ef5261" r="64"/></g><g id="icon"><path d="m101.554 46.265v44.735a5.253 5.253 0 0 1 -.367 1.93 4.619 4.619 0 0 1 -4.2 2.885h-65.949a4.624 4.624 0 0 1 -4.221-2.885 5.253 5.253 0 0 1 -.367-1.93v-54a4.7 4.7 0 0 1 4.588-4.815h15.768a4.331 4.331 0 0 1 3.644 2.032l4.684 7.232h41.851a4.694 4.694 0 0 1 4.569 4.816z" fill="#eab54e"/><path d="m31.419 45.74h65.167v20.46h-65.167z" fill="#eeefee"/><path d="m106.893 55.975-5.339 34.719-.367 2.235a4.619 4.619 0 0 1 -4.2 2.885h-65.949a4.624 4.624 0 0 1 -4.221-2.885l-.367-2.235-5.339-34.719a4.069 4.069 0 0 1 3.874-4.753h78.015a4.082 4.082 0 0 1 3.893 4.753z" fill="#f6c863"/></g></svg>