<svg height="512" viewBox="0 0 128 128" width="512" xmlns="http://www.w3.org/2000/svg"><g id="Circle_Grid" data-name="Circle Grid"><circle cx="64" cy="64" fill="#f6c863" r="64"/></g><g id="icon"><path d="m106.442 45.575v45.35a4.019 4.019 0 0 1 -4.038 4h-76.804a4.019 4.019 0 0 1 -4.038-4v-45.35a4.019 4.019 0 0 1 4.038-4h19.721a1.008 1.008 0 0 0 .968-.716l1.687-5.637a3.025 3.025 0 0 1 2.9-2.147h26.245a3.025 3.025 0 0 1 2.9 2.147l1.687 5.637a1.008 1.008 0 0 0 .968.716h19.724a4.019 4.019 0 0 1 4.042 4z" fill="#62667c"/><path d="m21.558 57h84.883v22.5h-84.883z" fill="#dbd8dd"/><circle cx="63.608" cy="68.25" fill="#575b6d" r="21.05"/><circle cx="63.608" cy="68.25" fill="#62667c" r="17.05"/><circle cx="63.608" cy="68.25" fill="#69b0ee" r="13.237"/><circle cx="66.757" cy="60.989" fill="#eeefee" r="3.078"/><circle cx="72.001" cy="64.541" fill="#eeefee" r="1.429"/><path d="m30.567 37.742h7.667a1 1 0 0 1 1 1v3.5a0 0 0 0 1 0 0h-9.667a0 0 0 0 1 0 0v-3.5a1 1 0 0 1 1-1z" fill="#62667c"/></g></svg>