<svg height="512" viewBox="0 0 128 128" width="512" xmlns="http://www.w3.org/2000/svg"><g id="Circle_Grid" data-name="Circle Grid"><circle cx="64" cy="64" fill="#ea8953" r="64"/></g><g id="icon"><path d="m23 41.107v57.915a3.525 3.525 0 0 0 3.526 3.525h74.948a3.525 3.525 0 0 0 3.526-3.525v-57.915z" fill="#eeefee"/><path d="m101.474 25.453h-74.948a3.525 3.525 0 0 0 -3.526 3.525v13.8h82v-13.8a3.525 3.525 0 0 0 -3.526-3.525z" fill="#62667c"/><circle cx="72.981" cy="34.113" fill="#2cbfae" r="3.174"/><circle cx="84.205" cy="34.113" fill="#f6c863" r="3.174"/><circle cx="95.428" cy="34.113" fill="#ef5261" r="3.174"/><path d="m33.667 49.333h2.667v46.167h-2.667z" fill="#dbd8dd"/><circle cx="35" cy="84.833" fill="#575b6d" r="4.083"/><path d="m48.167 49.333h2.667v46.167h-2.667z" fill="#dbd8dd"/><circle cx="49.5" cy="63.5" fill="#69b0ee" r="4.083"/><path d="m62.667 49.333h2.667v46.167h-2.667z" fill="#dbd8dd"/><circle cx="64" cy="73.5" fill="#f2c55a" r="4.083"/><path d="m77.167 49.333h2.667v46.167h-2.667z" fill="#dbd8dd"/><circle cx="78.5" cy="56.667" fill="#ef5261" r="4.083"/><path d="m91.667 49.333h2.667v46.167h-2.667z" fill="#dbd8dd"/><circle cx="93" cy="80.75" fill="#2cbfae" r="4.083"/></g></svg>