<svg height="512" viewBox="0 0 128 128" width="512" xmlns="http://www.w3.org/2000/svg"><g id="Circle_Grid" data-name="Circle Grid"><circle cx="64" cy="64" fill="#2cbfae" r="64"/></g><g id="icon"><path d="m23 41.107v57.915a3.525 3.525 0 0 0 3.526 3.525h74.948a3.525 3.525 0 0 0 3.526-3.525v-57.915z" fill="#eeefee"/><path d="m101.474 25.453h-74.948a3.525 3.525 0 0 0 -3.526 3.525v13.8h82v-13.8a3.525 3.525 0 0 0 -3.526-3.525z" fill="#575b6d"/><circle cx="72.981" cy="34.113" fill="#2cbfae" r="3.174"/><circle cx="84.205" cy="34.113" fill="#f6c863" r="3.174"/><circle cx="95.428" cy="34.113" fill="#ef5261" r="3.174"/><g fill="#dbd8dd"><path d="m60 80.4h-32v-32h32zm-29-3h26v-26h-26z"/><path d="m23.997 62.687h40.423v3h-40.423z" transform="matrix(.707 -.707 .707 .707 -32.439 50.06)"/><path d="m65.333 48.395h34.667v2.676h-34.667z"/><path d="m65.333 57.633h34.667v2.676h-34.667z"/><path d="m65.333 66.87h34.667v2.676h-34.667z"/><path d="m65.333 76.108h34.667v2.676h-34.667z"/><path d="m28 85.346h72v2.676h-72z"/><path d="m28 94.583h72v2.676h-72z"/></g></g></svg>