<svg height="512" viewBox="0 0 128 128" width="512" xmlns="http://www.w3.org/2000/svg"><g id="Circle_Grid" data-name="Circle Grid"><circle cx="64" cy="64" fill="#2cbfae" r="64"/></g><g id="icon"><path d="m23 42.774v56.248a3.525 3.525 0 0 0 3.526 3.525h74.948a3.525 3.525 0 0 0 3.526-3.525v-56.248z" fill="#eeefee"/><path d="m101.474 25.453h-74.948a3.525 3.525 0 0 0 -3.526 3.525v13.8h82v-13.8a3.525 3.525 0 0 0 -3.526-3.525z" fill="#62667c"/><circle cx="72.981" cy="34.113" fill="#2cbfae" r="3.174"/><circle cx="84.205" cy="34.113" fill="#f6c863" r="3.174"/><circle cx="95.428" cy="34.113" fill="#ef5261" r="3.174"/><path d="m81.666 72.885v9.368a1.52 1.52 0 1 1 -3.039 0v-7.853h-29.254v7.849a1.52 1.52 0 1 1 -3.039 0v-9.364a1.519 1.519 0 0 1 1.52-1.52h14.626v-8.487a1.52 1.52 0 1 1 3.04 0v8.487h14.626a1.519 1.519 0 0 1 1.52 1.52z" fill="#dbd8dd"/><path d="m56.5 51.484h15v15h-15z" fill="#ef5261"/><path d="m40.354 78.837h15v15h-15z" fill="#69b0ee"/><path d="m72.646 78.837h15v15h-15z" fill="#f2c55a"/></g></svg>