<svg height="512" viewBox="0 0 128 128" width="512" xmlns="http://www.w3.org/2000/svg"><g id="Circle_Grid" data-name="Circle Grid"><circle cx="64" cy="64" fill="#69b0ee" r="64"/></g><g id="icon"><path d="m92.16 48.16c0 33.64-28.16 59.84-28.16 59.84s-28.16-26.2-28.16-59.84a28.16 28.16 0 0 1 56.32 0z" fill="#ef5261"/><circle cx="64" cy="48.356" fill="#eeefee" r="20.989"/><path d="m80.143 50.761v-4.811l-4.368-.9a12.556 12.556 0 0 0 -1.114-2.691l2.455-3.716-3.407-3.407-3.715 2.464a12.547 12.547 0 0 0 -2.694-1.119l-.9-4.368h-4.806l-.9 4.368a12.475 12.475 0 0 0 -2.679 1.119l-3.724-2.456-3.407 3.407 2.455 3.716a12.088 12.088 0 0 0 -1.1 2.691l-4.377.9v4.811l4.377.9a12.018 12.018 0 0 0 1.1 2.682l-2.455 3.725 3.407 3.407 3.724-2.456a12.06 12.06 0 0 0 2.685 1.095l.9 4.376h4.812l.9-4.376a12.13 12.13 0 0 0 2.691-1.106l3.715 2.456 3.407-3.407-2.464-3.725a12.483 12.483 0 0 0 1.114-2.682zm-16.143 4.288a6.694 6.694 0 1 1 6.69-6.7 6.7 6.7 0 0 1 -6.69 6.7z" fill="#575b6d"/></g></svg>