<svg height="512" viewBox="0 0 128 128" width="512" xmlns="http://www.w3.org/2000/svg"><g id="Circle_Grid" data-name="Circle Grid"><circle cx="64" cy="64" fill="#f6c863" r="64"/></g><g id="icon"><path d="m68.508 91.411h-23.55l3.371-10.398h16.808z" fill="#575b6d"/><path d="m70.161 90.517h-26.855a2.019 2.019 0 0 0 -2.019 2.019v1.064h30.893v-1.064a2.019 2.019 0 0 0 -2.019-2.019z" fill="#62667c"/><path d="m91.959 37.223v44.877a2.688 2.688 0 0 1 -2.68 2.694h-65.085a2.691 2.691 0 0 1 -2.694-2.694v-44.877a2.819 2.819 0 0 1 2.823-2.823h64.813a2.819 2.819 0 0 1 2.823 2.823z" fill="#62667c"/><path d="m37.95 23.943h37.566v64.633h-37.566z" fill="#69b0ee" transform="matrix(0 1 -1 0 112.992 -.474)"/><circle cx="56.733" cy="79.92" fill="#828a9e" r="1.789"/><g fill="#eeefee"><path d="m29.676 75.042h-1.813l26.143-37.566h1.812z" opacity=".5"/><path d="m62.907 75.042h-1.812l26.142-37.566h1.813z" opacity=".5"/><path d="m42.366 75.042h-8.3l26.142-37.566h8.3z" opacity=".5"/></g><rect fill="#575b6d" height="39.644" rx="2.387" width="24.263" x="82.237" y="53.956"/><path d="m83.43 58.446h21.876v29.784h-21.876z" fill="#69b0ee"/><circle cx="94.567" cy="90.915" fill="#828a9e" r="1.293"/><rect fill="#828a9e" height=".994" rx=".497" width="4.948" x="91.894" y="55.705"/><g fill="#eeefee" opacity=".5"><path d="m85.51 88.23h-.617l11.532-29.784h.617z"/><path d="m92.731 88.23h-3.309l11.532-29.784h3.309z"/></g></g></svg>