<svg height="512" viewBox="0 0 128 128" width="512" xmlns="http://www.w3.org/2000/svg"><g id="Circle_Grid" data-name="Circle Grid"><circle cx="64" cy="64" fill="#ea8953" r="64"/></g><g id="icon"><rect fill="#575b6d" height="82" rx="2.371" width="79.629" x="24.185" y="23"/><rect fill="#69b0ee" height="19.363" rx="1.185" width="68.561" x="29.72" y="29.82"/><g fill="#dbd8dd"><rect height="10.077" rx="1.185" width="11.26" x="29.72" y="56.395"/><rect height="10.077" rx="1.185" width="11.26" x="48.82" y="56.395"/><rect height="10.077" rx="1.185" width="11.26" x="67.92" y="56.395"/></g><rect fill="#9a9eaf" height="10.077" rx="1.185" width="11.26" x="87.02" y="56.395"/><rect fill="#dbd8dd" height="10.077" rx="1.185" width="11.26" x="29.72" y="72.794"/><rect fill="#dbd8dd" height="10.077" rx="1.185" width="11.26" x="48.82" y="72.794"/><rect fill="#dbd8dd" height="10.077" rx="1.185" width="11.26" x="67.92" y="72.794"/><rect fill="#2cbfae" height="10.077" rx="1.185" width="11.26" x="87.02" y="72.794"/><rect fill="#dbd8dd" height="10.077" rx="1.185" width="11.26" x="29.72" y="89.194"/><rect fill="#dbd8dd" height="10.077" rx="1.185" width="11.26" x="48.82" y="89.194"/><rect fill="#dbd8dd" height="10.077" rx="1.185" width="11.26" x="67.92" y="89.194"/><rect fill="#ef5261" height="10.077" rx="1.185" width="11.26" x="87.02" y="89.194"/></g></svg>