<svg height="512" viewBox="0 0 128 128" width="512" xmlns="http://www.w3.org/2000/svg"><g id="Circle_Grid" data-name="Circle Grid"><circle cx="64" cy="64" fill="#ef5261" r="64"/></g><g id="icon"><circle cx="52.661" cy="52.631" fill="#69b0ee" r="27.051"/><path d="m72.924 79.339.344.344 6.46-6.46-.344-.344z" fill="#475f6c"/><path d="m33.1 30.341a29.668 29.668 0 0 0 34 48.221 4.87 4.87 0 0 1 5.829.777l6.46-6.46v-.005a4.877 4.877 0 0 1 -.776-5.831 29.669 29.669 0 0 0 -45.513-36.702zm37.368 40.106a25.183 25.183 0 1 1 0-35.614 25.246 25.246 0 0 1 0 35.614z" fill="#575b6d"/><path d="m102.047 90-20.739-17.908-9.183 9.182 17.893 20.749a8.526 8.526 0 0 0 12.485.461 8.524 8.524 0 0 0 -.456-12.484z" fill="#f6b863"/><path d="m83.559 71.553a1.949 1.949 0 0 1 .221 2.53 1.181 1.181 0 0 1 -.221.27l-9.186 9.186a1.073 1.073 0 0 1 -.27.221 2 2 0 0 1 -2.554-3.046l9.186-9.186a1.986 1.986 0 0 1 2.824.025z" fill="#eaa14e"/><g fill="#eeefee"><path d="m46.529 48.988-8.857 4.438 8.857 4.444v3.101l-12.62-6.501v-2.081l12.62-6.501z"/><path d="m58.162 41.478-7.339 22.307h-2.981l7.313-22.307z"/><path d="m71.413 52.363v2.132l-12.614 6.47v-3.101l8.92-4.438-8.92-4.438v-3.1z"/></g></g></svg>