<svg height="512" viewBox="0 0 128 128" width="512" xmlns="http://www.w3.org/2000/svg"><g id="Circle_Grid" data-name="Circle Grid"><circle cx="64" cy="64" fill="#69b0ee" r="64"/></g><g id="icon"><rect fill="#62667c" height="79.179" rx="3.734" width="82" x="23" y="24.411"/><path d="m27.515 39.799h72.971v59.276h-72.971z" fill="#eeefee"/><circle cx="77.568" cy="32.105" fill="#2cbfae" r="2.194"/><circle cx="96.878" cy="32.105" fill="#ef5261" r="2.194"/><circle cx="87.223" cy="32.105" fill="#f6c863" r="2.194"/><rect fill="#828a9e" height="3.376" rx="1.688" width="36.375" x="30.625" y="30.417"/><path d="m82.477 88.04h-36.953a3.166 3.166 0 0 1 -2.717-4.791l18.477-30.875a3.165 3.165 0 0 1 5.433 0l18.476 30.875a3.165 3.165 0 0 1 -2.716 4.791z" fill="#f2c55a"/><path d="m62.134 81.383a1.854 1.854 0 0 1 1.866-1.96 1.963 1.963 0 0 1 0 3.921 1.854 1.854 0 0 1 -1.866-1.961zm.79-4.522-.441-15.181h3.035l-.443 15.181z" fill="#575b6d"/></g></svg>