<svg height="512" viewBox="0 0 128 128" width="512" xmlns="http://www.w3.org/2000/svg"><g id="Circle_Grid" data-name="Circle Grid"><circle cx="64" cy="64" fill="#2cbfae" r="64"/></g><g id="icon"><rect fill="#62667c" height="79.179" rx="3.734" width="82" x="23" y="24.411"/><path d="m27.515 39.799h72.971v59.276h-72.971z" fill="#eeefee"/><circle cx="77.568" cy="32.105" fill="#2cbfae" r="2.194"/><circle cx="96.878" cy="32.105" fill="#ef5261" r="2.194"/><circle cx="87.223" cy="32.105" fill="#f6c863" r="2.194"/><rect fill="#828a9e" height="3.376" rx="1.688" width="36.375" x="30.625" y="30.417"/><g fill="#dbd8dd"><path d="m32.446 77.988h17.658v2.5h-17.658z"/><path d="m32.446 84.821h17.658v2.5h-17.658z"/><path d="m32.446 91.654h10.941v2.5h-10.941z"/><path d="m32.446 44.562h17.658v29.042h-17.658z"/><path d="m55.171 44.562h17.658v29.042h-17.658z"/><path d="m77.897 44.562h17.658v29.042h-17.658z"/><path d="m55.172 78.145h17.658v2.5h-17.658z"/><path d="m55.172 84.978h17.658v2.5h-17.658z"/><path d="m55.172 91.812h10.941v2.5h-10.941z"/><path d="m77.897 77.988h17.658v2.5h-17.658z"/><path d="m77.897 84.821h17.658v2.5h-17.658z"/><path d="m77.897 91.654h10.941v2.5h-10.941z"/></g></g></svg>