<svg height="512" viewBox="0 0 128 128" width="512" xmlns="http://www.w3.org/2000/svg"><g id="Circle_Grid" data-name="Circle Grid"><circle cx="64" cy="64" fill="#ea8953" r="64"/></g><g id="icon"><circle cx="63.427" cy="64" fill="#eeefee" r="6.774"/><path d="m62.416 94.131-26.424-17.256v-25.75l26.424-17.256z" fill="#eeefee"/><rect fill="#575b6d" height="64.306" rx="2.494" width="4.987" x="59.923" y="31.847"/><path d="m25.544 51.125h10.448a0 0 0 0 1 0 0v25.75a0 0 0 0 1 0 0h-10.448a4.044 4.044 0 0 1 -4.044-4.045v-17.66a4.044 4.044 0 0 1 4.044-4.045z" fill="#575b6d"/><g fill="#eeefee"><path d="m92.665 91.223a2.481 2.481 0 0 1 -.109-3.4 36.134 36.134 0 0 0 0-47.648 2.481 2.481 0 0 1 .109-3.4 2.5 2.5 0 0 1 3.632.109 41.129 41.129 0 0 1 0 54.228 2.5 2.5 0 0 1 -3.632.111z"/><path d="m83.834 82.4a2.506 2.506 0 0 1 -.127-3.377 23.688 23.688 0 0 0 0-30.038 2.507 2.507 0 0 1 .125-3.378 2.48 2.48 0 0 1 3.65.135 28.664 28.664 0 0 1 0 36.522 2.478 2.478 0 0 1 -3.648.136z"/><path d="m78.726 73.235a2.374 2.374 0 0 1 -3.74.308l-.043-.043a2.377 2.377 0 0 1 -.312-3.033 11.3 11.3 0 0 0 0-12.934 2.373 2.373 0 0 1 .3-3.024l.052-.052a2.374 2.374 0 0 1 3.74.308 16.229 16.229 0 0 1 .003 18.47z"/></g></g></svg>