<svg height="512" viewBox="0 0 128 128" width="512" xmlns="http://www.w3.org/2000/svg"><g id="Circle_Grid" data-name="Circle Grid"><circle cx="64" cy="64" fill="#2cbfae" r="64"/></g><g id="icon"><path d="m23 41.107v57.915a3.525 3.525 0 0 0 3.526 3.525h74.948a3.525 3.525 0 0 0 3.526-3.525v-57.915z" fill="#eeefee"/><path d="m101.474 25.453h-74.948a3.525 3.525 0 0 0 -3.526 3.525v13.8h82v-13.8a3.525 3.525 0 0 0 -3.526-3.525z" fill="#62667c"/><circle cx="72.981" cy="34.113" fill="#2cbfae" r="3.174"/><circle cx="84.205" cy="34.113" fill="#f6c863" r="3.174"/><circle cx="95.428" cy="34.113" fill="#ef5261" r="3.174"/><circle cx="58.111" cy="66.923" fill="#69b0ee" r="14.049"/><path d="m68.635 80.793.178.179 3.355-3.355-.179-.179z" fill="#475f6c"/><path d="m47.951 55.346a15.408 15.408 0 0 0 17.656 25.044 2.532 2.532 0 0 1 3.028.4l3.354-3.355a2.533 2.533 0 0 1 -.4-3.029 15.409 15.409 0 0 0 -23.638-19.06zm19.408 20.83a13.079 13.079 0 1 1 0-18.5 13.112 13.112 0 0 1 0 18.5z" fill="#62667c"/><path d="m83.759 86.332-10.77-9.3-4.769 4.768 9.292 10.775a4.428 4.428 0 0 0 6.484.24 4.428 4.428 0 0 0 -.237-6.483z" fill="#f6b863"/><path d="m74.158 76.75a1.013 1.013 0 0 1 .115 1.314.628.628 0 0 1 -.115.14l-4.771 4.77a.526.526 0 0 1 -.14.115 1.037 1.037 0 0 1 -1.327-1.581l4.771-4.771a1.031 1.031 0 0 1 1.467.013z" fill="#eaa14e"/></g></svg>