<svg height="512" viewBox="0 0 128 128" width="512" xmlns="http://www.w3.org/2000/svg"><g id="Circle_Grid" data-name="Circle Grid"><circle cx="64" cy="64" fill="#3b5059" r="64"/></g><g id="icon"><path d="m64 106.994a42.994 42.994 0 1 1 43-42.988 43.043 43.043 0 0 1 -43 42.988zm0-82.565a39.571 39.571 0 1 0 39.577 39.577 39.622 39.622 0 0 0 -39.577-39.577z" fill="#eeefee"/><circle cx="64" cy="64" fill="#eeefee" r="28.739"/><g fill="#69b0ee"><path d="m64 93.917a29.917 29.917 0 1 1 29.921-29.917 29.951 29.951 0 0 1 -29.921 29.917zm0-56.288a26.371 26.371 0 1 0 26.375 26.371 26.405 26.405 0 0 0 -26.375-26.371z"/><path d="m64 93.917c-8.791 0-15.678-13.14-15.678-29.913s6.887-29.921 15.678-29.921 15.678 13.143 15.678 29.917-6.887 29.917-15.678 29.917zm0-56.288c-6.576 0-12.132 12.078-12.132 26.375s5.556 26.367 12.132 26.367 12.132-12.071 12.132-26.371-5.555-26.371-12.132-26.371z"/><path d="m62.227 35.856h3.546v56.288h-3.546z"/><path d="m35.856 62.227h56.288v3.546h-56.288z"/><path d="m39.684 48.059h48.637v3.546h-48.637z"/><path d="m39.148 75.428h49.708v3.546h-49.708z"/></g><circle cx="38.53" cy="30.927" fill="#ef5261" r="6.972"/></g></svg>