<svg height="512" viewBox="0 0 128 128" width="512" xmlns="http://www.w3.org/2000/svg"><g id="Circle_Grid" data-name="Circle Grid"><circle cx="64" cy="64" fill="#2cbfae" r="64"/></g><g id="icon"><path d="m99.2 41.219v44.735a5.273 5.273 0 0 1 -.366 1.93 4.619 4.619 0 0 1 -4.2 2.885h-65.95a4.627 4.627 0 0 1 -4.222-2.885 5.273 5.273 0 0 1 -.366-1.93v-54a4.7 4.7 0 0 1 4.588-4.814h15.768a4.329 4.329 0 0 1 3.648 2.032l4.685 7.233h41.846a4.693 4.693 0 0 1 4.569 4.814z" fill="#f6c863"/><path d="m29.064 40.695h65.167v20.46h-65.167z" fill="#eeefee"/><path d="m104.539 50.93-5.339 34.719-.366 2.235a4.619 4.619 0 0 1 -4.2 2.885h-65.95a4.627 4.627 0 0 1 -4.222-2.885l-.362-2.235-5.344-34.719a4.07 4.07 0 0 1 3.875-4.754h78.014a4.083 4.083 0 0 1 3.894 4.754z" fill="#f6c863"/><circle cx="98.132" cy="89.701" fill="#ef5261" r="11.158"/><path d="m105.267 86.123-9.451 9.45-4.819-4.819 2.289-2.293 2.53 2.53 7.157-7.162z" fill="#eeefee"/></g></svg>