<svg height="512" viewBox="0 0 128 128" width="512" xmlns="http://www.w3.org/2000/svg"><g id="Circle_Grid" data-name="Circle Grid"><circle cx="64" cy="64" fill="#69b0ee" r="64"/></g><g id="icon"><path d="m23 41.107v57.915a3.525 3.525 0 0 0 3.526 3.525h74.948a3.525 3.525 0 0 0 3.526-3.525v-57.915z" fill="#eeefee"/><path d="m101.474 25.453h-74.948a3.525 3.525 0 0 0 -3.526 3.525v13.8h82v-13.8a3.525 3.525 0 0 0 -3.526-3.525z" fill="#62667c"/><circle cx="72.981" cy="34.113" fill="#2cbfae" r="3.174"/><circle cx="84.205" cy="34.113" fill="#f6c863" r="3.174"/><g fill="#ef5261"><circle cx="95.428" cy="34.113" r="3.174"/><path d="m64.005 93.9a21.077 21.077 0 1 1 21.072-21.078 21.105 21.105 0 0 1 -21.072 21.078zm0-39.07a17.993 17.993 0 1 0 17.988 17.992 18.014 18.014 0 0 0 -17.988-17.988z"/><path d="m60.54 60.976h6.921v23.703h-6.921z" transform="matrix(.707 -.707 .707 .707 -32.751 66.585)"/><path d="m60.54 60.976h6.921v23.703h-6.921z" transform="matrix(.707 .707 -.707 .707 70.242 -23.924)"/></g></g></svg>