<svg height="512" viewBox="0 0 128 128" width="512" xmlns="http://www.w3.org/2000/svg"><g id="Circle_Grid" data-name="Circle Grid"><circle cx="64" cy="64" fill="#ea8953" r="64"/></g><g id="icon"><rect fill="#62667c" height="79.179" rx="3.734" width="82" x="23" y="24.411"/><path d="m27.515 39.799h72.971v59.276h-72.971z" fill="#eeefee"/><circle cx="77.568" cy="32.105" fill="#2cbfae" r="2.194"/><circle cx="96.878" cy="32.105" fill="#ef5261" r="2.194"/><circle cx="87.223" cy="32.105" fill="#f6c863" r="2.194"/><rect fill="#828a9e" height="3.376" rx="1.688" width="36.375" x="30.625" y="30.417"/><circle cx="64" cy="69.437" fill="#eeefee" r="19.242"/><g fill="#69b0ee"><path d="m64 89.467a20.031 20.031 0 1 1 20.033-20.028 20.053 20.053 0 0 1 -20.033 20.028zm0-37.686a17.656 17.656 0 1 0 17.659 17.658 17.678 17.678 0 0 0 -17.659-17.658z"/><path d="m64 89.467c-5.886 0-10.5-8.8-10.5-20.028s4.614-20.033 10.5-20.033 10.5 8.8 10.5 20.033-4.614 20.028-10.5 20.028zm0-37.686c-4.4 0-8.122 8.086-8.122 17.658s3.722 17.654 8.122 17.654 8.123-8.084 8.123-17.654-3.723-17.658-8.123-17.658z"/><path d="m62.813 50.593h2.374v37.687h-2.374z"/><path d="m45.157 68.25h37.687v2.374h-37.687z"/><path d="m47.72 58.764h32.564v2.374h-32.564z"/><path d="m47.361 77.088h33.281v2.374h-33.281z"/></g></g></svg>