<svg height="512" viewBox="0 0 128 128" width="512" xmlns="http://www.w3.org/2000/svg"><g id="Circle_Grid" data-name="Circle Grid"><circle cx="64" cy="64" fill="#ef5261" r="64"/></g><g id="icon"><rect fill="#dbd8dd" height="55.327" rx="3.117" width="86" x="21" y="41.653"/><path d="m39.454 29.434h49.093v79.766h-49.093z" fill="#eeefee" transform="matrix(0 1 -1 0 133.317 5.317)"/><path d="m58.545 31.02h10.91a.779.779 0 0 1 .779.779v13.572a6.234 6.234 0 0 1 -6.234 6.234 6.234 6.234 0 0 1 -6.234-6.234v-13.571a.779.779 0 0 1 .779-.78z" fill="#575b6d"/><circle cx="64" cy="46.053" fill="#eeefee" r="2.305"/><circle cx="40.01" cy="60.508" fill="#2cbfae" r="6.604"/><path d="m52.4 78.209h-24.781a12.391 12.391 0 0 1 24.782 0z" fill="#2cbfae"/><g fill="#dbd8dd"><path d="m58.487 53.904h40.968v3.334h-40.968z"/><path d="m58.487 64.389h40.968v3.334h-40.968z"/><path d="m58.487 74.874h40.968v3.334h-40.968z"/><path d="m27.619 85.36h71.837v3.334h-71.837z"/></g></g></svg>