<svg height="512" viewBox="0 0 128 128" width="512" xmlns="http://www.w3.org/2000/svg"><g id="Circle_Grid" data-name="Circle Grid"><circle cx="64" cy="64" fill="#2cbfae" r="64"/></g><g id="icon"><rect fill="#f6b863" height="79.491" rx="3.613" width="63.424" x="32.288" y="25.509"/><path d="m37.105 30.327h53.789v69.856h-53.789z" fill="#eeefee"/><rect fill="#575b6d" height="10.739" rx="2.264" width="27.011" x="50.495" y="23"/><path d="m45.622 49.399-4.38-4.379 1.703-1.703 2.677 2.676 6.636-6.637 1.703 1.703z" fill="#ef5261"/><path d="m55.97 44.955h30.788v2.007h-30.788z" fill="#dbd8dd"/><path d="m45.622 64.253-4.38-4.379 1.703-1.703 2.677 2.676 6.636-6.637 1.703 1.703z" fill="#ef5261"/><path d="m55.97 59.81h30.788v2.007h-30.788z" fill="#dbd8dd"/><path d="m45.622 79.107-4.38-4.378 1.703-1.704 2.677 2.676 6.636-6.636 1.703 1.703z" fill="#ef5261"/><path d="m55.97 74.664h30.788v2.007h-30.788z" fill="#dbd8dd"/><path d="m45.622 93.962-4.38-4.379 1.703-1.703 2.677 2.676 6.636-6.637 1.703 1.703z" fill="#ef5261"/><path d="m55.97 89.518h30.788v2.007h-30.788z" fill="#dbd8dd"/></g></svg>