<svg height="512" viewBox="0 0 128 128" width="512" xmlns="http://www.w3.org/2000/svg"><g id="Circle_Grid" data-name="Circle Grid"><circle cx="64" cy="64" fill="#69b0ee" r="64"/></g><g id="icon"><path d="m23 46.172v57.914a3.525 3.525 0 0 0 3.526 3.526h74.948a3.525 3.525 0 0 0 3.526-3.526v-57.914z" fill="#eeefee"/><path d="m101.474 30.517h-74.948a3.526 3.526 0 0 0 -3.526 3.526v13.8h82v-13.8a3.526 3.526 0 0 0 -3.526-3.526z" fill="#62667c"/><circle cx="72.981" cy="39.178" fill="#2cbfae" r="3.174"/><circle cx="84.205" cy="39.178" fill="#f6c863" r="3.174"/><circle cx="95.428" cy="39.178" fill="#ef5261" r="3.174"/><g fill="#dbd8dd"><path d="m27.933 53.811h23.067v21.04h-23.067z"/><path d="m57 71.065h30.852v3.786h-30.852z"/><path d="m57 62.438h43.067v3.786h-43.067z"/><path d="m57 53.811h43.067v3.786h-43.067z"/><path d="m77 80.956h23.067v21.04h-23.067z" transform="matrix(-1 0 0 -1 177.067 182.953)"/><path d="m27.933 98.21h43.067v3.786h-43.067z" transform="matrix(-1 0 0 -1 98.933 200.207)"/><path d="m27.933 89.583h43.067v3.786h-43.067z" transform="matrix(-1 0 0 -1 98.933 182.953)"/><path d="m27.933 80.956h43.067v3.786h-43.067z" transform="matrix(-1 0 0 -1 98.933 165.699)"/></g></g></svg>