<svg height="512" viewBox="0 0 128 128" width="512" xmlns="http://www.w3.org/2000/svg"><g id="Circle_Grid" data-name="Circle Grid"><circle cx="64" cy="64" fill="#ef5261" r="64"/></g><g id="icon"><circle cx="52.662" cy="52.633" fill="#69b0ee" r="27.048"/><path d="m72.923 79.337.344.344 6.459-6.459-.344-.344z" fill="#475f6c"/><path d="m33.1 30.345a29.664 29.664 0 0 0 33.994 48.215 4.871 4.871 0 0 1 5.829.777l6.459-6.459h-.005a4.877 4.877 0 0 1 -.776-5.831 29.665 29.665 0 0 0 -45.5-36.7zm37.366 40.1a25.18 25.18 0 1 1 0-35.61 25.243 25.243 0 0 1 .001 35.612z" fill="#62667c"/><path d="m102.042 90-20.736-17.909-9.182 9.181 17.891 20.746a8.524 8.524 0 0 0 12.483.461 8.525 8.525 0 0 0 -.456-12.479z" fill="#f6b863"/><path d="m83.557 71.552a1.95 1.95 0 0 1 .221 2.529 1.165 1.165 0 0 1 -.221.27l-9.185 9.185a1.073 1.073 0 0 1 -.27.221 2 2 0 0 1 -2.554-3.045l9.184-9.185a1.987 1.987 0 0 1 2.825.025z" fill="#eaa14e"/><g fill="#eeefee"><path d="m40.08 50.295h25.165v4.676h-25.165z"/><path d="m40.08 50.295h25.165v4.676h-25.165z" transform="matrix(0 1 -1 0 105.295 -.03)"/></g></g></svg>