<svg height="512" viewBox="0 0 128 128" width="512" xmlns="http://www.w3.org/2000/svg"><g id="Circle_Grid" data-name="Circle Grid"><circle cx="64" cy="64" fill="#3b5059" r="64"/></g><g id="icon"><path d="m48.562 37.069v29.693a5.235 5.235 0 0 0 5.219 5.219h26.64l13.046 13.046v-13.046h6.315a5.234 5.234 0 0 0 5.218-5.219v-29.693a5.233 5.233 0 0 0 -5.218-5.218h-46a5.234 5.234 0 0 0 -5.22 5.218z" fill="#69b0ee"/><g fill="#419be9"><rect height="1.967" rx=".983" transform="matrix(-1 0 0 -1 153.562 83.901)" width="44.803" x="54.38" y="40.967"/><rect height="1.967" rx=".983" transform="matrix(-1 0 0 -1 153.562 103.832)" width="44.803" x="54.38" y="50.932"/><rect height="1.967" rx=".983" transform="matrix(-1 0 0 -1 153.562 123.762)" width="44.803" x="54.38" y="60.898"/></g><path d="m64.962 60.492v22.077a3.891 3.891 0 0 1 -3.88 3.88h-19.807l-9.7 9.7v-9.7h-4.695a3.891 3.891 0 0 1 -3.88-3.88v-22.077a3.891 3.891 0 0 1 3.88-3.88h34.2a3.891 3.891 0 0 1 3.882 3.88z" fill="#eeefee"/><rect fill="#dbd8dd" height="1.462" rx=".731" width="33.311" x="27.325" y="63.39"/><rect fill="#dbd8dd" height="1.462" rx=".731" width="33.311" x="27.325" y="70.8"/><rect fill="#dbd8dd" height="1.462" rx=".731" width="33.311" x="27.325" y="78.209"/></g></svg>