<svg height="512" viewBox="0 0 128 128" width="512" xmlns="http://www.w3.org/2000/svg"><g id="Circle_Grid" data-name="Circle Grid"><circle cx="64" cy="64" fill="#2cbfae" r="64"/></g><g id="icon"><rect fill="#62667c" height="79.179" rx="3.734" width="82" x="23" y="24.411"/><path d="m27.515 39.799h72.971v59.276h-72.971z" fill="#eeefee"/><circle cx="77.568" cy="32.105" fill="#2cbfae" r="2.194"/><circle cx="96.878" cy="32.105" fill="#ef5261" r="2.194"/><circle cx="87.223" cy="32.105" fill="#f6c863" r="2.194"/><rect fill="#828a9e" height="3.376" rx="1.688" width="36.375" x="30.625" y="30.417"/><path d="m78.687 86.492-6.228-2.432-2.423 6.231-6.29-14.324 8.651-3.799z" fill="#ef5261"/><path d="m49.313 86.492 6.228-2.432 2.423 6.231 6.291-14.324-8.652-3.799z" fill="#ef5261"/><circle cx="64" cy="62.775" fill="#f6c863" r="14.193"/><g fill="#eab54e"><path d="m64 74.173a11.4 11.4 0 1 1 11.4-11.4 11.411 11.411 0 0 1 -11.4 11.4zm0-21.505a10.108 10.108 0 1 0 10.107 10.107 10.118 10.118 0 0 0 -10.107-10.107z"/><path d="m64 56.539 1.856 4.34 4.702.424-3.555 3.107 1.05 4.602-4.053-2.421-4.052 2.421 1.049-4.602-3.554-3.107 4.701-.424z"/></g></g></svg>