<svg height="512" viewBox="0 0 128 128" width="512" xmlns="http://www.w3.org/2000/svg"><g id="Circle_Grid" data-name="Circle Grid"><circle cx="64" cy="64" fill="#f6c863" r="64"/></g><g id="icon"><path d="m31.125 33.989h65.75a3.554 3.554 0 0 1 3.554 3.554v47.091a0 0 0 0 1 0 0h-72.858a0 0 0 0 1 0 0v-47.091a3.554 3.554 0 0 1 3.554-3.554z" fill="#62667c"/><path d="m43.12 27.325h41.76v63.972h-41.76z" fill="#69b0ee" transform="matrix(0 1 -1 0 123.311 -4.689)"/><path d="m23.277 84.634h81.446a1.777 1.777 0 0 1 1.777 1.777v2.269a5.331 5.331 0 0 1 -5.331 5.331h-74.338a5.331 5.331 0 0 1 -5.331-5.331v-2.269a1.777 1.777 0 0 1 1.777-1.777z" fill="#4f5363"/><path d="m72.579 88.521h-17.158l-2.027-3.887h21.212z" fill="#62667c"/><path d="m84.22 61.492-4.331 1.943 2.901 4.649-4.516 2.818-2.901-4.649-3.649 3.038-1.158-15.773z" fill="#eeefee"/></g></svg>