<svg height="512" viewBox="0 0 128 128" width="512" xmlns="http://www.w3.org/2000/svg"><g id="Circle_Grid" data-name="Circle Grid"><circle cx="64" cy="64" fill="#f6c863" r="64"/></g><g id="icon"><path d="m29.461 45.369h69.078a0 0 0 0 1 0 0v49.023a4.457 4.457 0 0 1 -4.457 4.457h-60.164a4.457 4.457 0 0 1 -4.457-4.457v-49.023a0 0 0 0 1 0 0z" fill="#eeefee"/><path d="m33.918 36.208h60.164a4.457 4.457 0 0 1 4.457 4.457v10.646a0 0 0 0 1 0 0h-69.078a0 0 0 0 1 0 0v-10.646a4.457 4.457 0 0 1 4.457-4.457z" fill="#ef5261"/><rect fill="#575b6d" height="14.113" rx="2.855" width="5.71" x="82.005" y="29.152"/><rect fill="#575b6d" height="14.113" rx="2.855" width="5.71" x="40.286" y="29.152"/><g fill="#dbd8dd"><path d="m47.23 57.996h7.534v7.675h-7.534z"/><path d="m60.233 57.996h7.534v7.675h-7.534z"/><path d="m73.236 57.996h7.534v7.675h-7.534z"/><path d="m86.238 57.996h7.534v7.675h-7.534z"/><path d="m34.227 70.871h7.534v7.675h-7.534z"/><path d="m47.23 70.871h7.534v7.675h-7.534z"/><path d="m60.233 70.871h7.534v7.675h-7.534z"/><path d="m73.236 70.871h7.534v7.675h-7.534z"/><path d="m86.238 70.871h7.534v7.675h-7.534z"/><path d="m34.227 83.745h7.534v7.675h-7.534z"/><path d="m47.23 83.745h7.534v7.675h-7.534z"/><path d="m60.233 83.745h7.534v7.675h-7.534z"/></g></g></svg>