<svg height="512" viewBox="0 0 128 128" width="512" xmlns="http://www.w3.org/2000/svg"><g id="Circle_Grid" data-name="Circle Grid"><circle cx="64" cy="64" fill="#ea8953" r="64"/></g><g id="icon"><path d="m64 90.329a1.95 1.95 0 0 1 -1.95-1.95v-38.8a1.95 1.95 0 1 1 3.9 0v38.8a1.95 1.95 0 0 1 -1.95 1.95z" fill="#dbd8dd"/><path d="m93.657 90.329a1.95 1.95 0 0 1 -1.95-1.95v-15.727h-55.414v15.727a1.95 1.95 0 0 1 -3.9 0v-17.679a1.95 1.95 0 0 1 1.95-1.95h59.314a1.95 1.95 0 0 1 1.95 1.95v17.679a1.95 1.95 0 0 1 -1.95 1.95z" fill="#dbd8dd"/><g fill="#eeefee"><rect height="18.673" rx="2" width="18.673" x="25.007" y="81.639"/><rect height="18.673" rx="2" width="18.673" x="54.664" y="81.639"/><rect height="18.673" rx="2" width="18.673" x="84.32" y="81.639"/><rect height="31.974" rx="1.56" width="55.37" x="36.315" y="27.688"/></g><path d="m88.566 56.543h-49.132v-25.736h49.132zm-47.572-1.56h46.012v-22.616h-46.012z" fill="#dbd8dd"/><path d="m44.546 38.248h38.907v2.47h-38.907z" fill="#575b6d"/><path d="m52.172 46.632h23.656v2.47h-23.656z" fill="#575b6d"/></g></svg>