<svg height="512" viewBox="0 0 128 128" width="512" xmlns="http://www.w3.org/2000/svg"><g id="Circle_Grid" data-name="Circle Grid"><circle cx="64" cy="64" fill="#3b5059" r="64"/></g><g id="icon"><path d="m64 101.021a37.021 37.021 0 1 1 37.034-37.021 37.063 37.063 0 0 1 -37.034 37.021zm0-71.333a34.312 34.312 0 1 0 34.325 34.312 34.351 34.351 0 0 0 -34.325-34.312z" fill="#eeefee"/><circle cx="64" cy="28.334" fill="#2cbfae" r="6.834"/><circle cx="64" cy="99.666" fill="#f2c55a" r="6.834"/><circle cx="99.666" cy="64" fill="#69b0ee" r="6.834"/><circle cx="28.334" cy="64" fill="#ef5261" r="6.834"/><path d="m54.887 78.183h18.243v9.187h-18.243z" fill="#828a9e"/><path d="m79.911 61.234a22.1 22.1 0 0 0 -6.742 14.585l-9.162-.253-9.163.253a22.1 22.1 0 0 0 -6.744-14.585l15.149-20.6v15.821a4.585 4.585 0 1 0 1.509 0v-15.825z" fill="#f2c55a"/><rect fill="#9a9eaf" height="3.297" rx="1.006" width="21.232" x="53.392" y="75.15"/></g></svg>