<svg height="512" viewBox="0 0 128 128" width="512" xmlns="http://www.w3.org/2000/svg"><g id="Circle_Grid" data-name="Circle Grid"><circle cx="64" cy="64" fill="#f6c863" r="64"/></g><g id="icon"><path d="m78.042 96.679h-28.075l4.018-12.396h20.039z" fill="#62667c"/><path d="m80.013 95.613h-32.013a2.407 2.407 0 0 0 -2.407 2.407v1.269h36.827v-1.269a2.407 2.407 0 0 0 -2.407-2.407z" fill="#575b6d"/><path d="m106 32.077v53.505a3.2 3.2 0 0 1 -3.195 3.212h-77.593a3.208 3.208 0 0 1 -3.212-3.212v-53.5a3.361 3.361 0 0 1 3.365-3.366h77.27a3.361 3.361 0 0 1 3.365 3.361z" fill="#575b6d"/><path d="m41.612 16.244h44.786v77.055h-44.786z" fill="#69b0ee" transform="matrix(0 1 -1 0 118.776 -9.233)"/><circle cx="64.005" cy="82.979" fill="#828a9e" r="2.133"/><g fill="#eeefee"><path d="m67.708 52.362.105-3.841-3.467-.812a10.127 10.127 0 0 0 -.831-2.173l2.041-2.912-2.645-2.8-3.02 1.88a10.03 10.03 0 0 0 -2.124-.949l-.621-3.506-3.841-.106-.812 3.468a9.966 9.966 0 0 0 -2.166.831l-2.919-2.042-2.8 2.646 1.879 3.019a9.72 9.72 0 0 0 -.941 2.125l-3.514.62-.1 3.842 3.475.812a9.594 9.594 0 0 0 .824 2.165l-2.042 2.92 2.645 2.794 3.027-1.879a9.619 9.619 0 0 0 2.118.941l.62 3.514 3.842.105.811-3.474a9.639 9.639 0 0 0 2.173-.824l2.913 2.042 2.794-2.646-1.879-3.022a9.971 9.971 0 0 0 .948-2.117zm-12.979 3.071a5.346 5.346 0 1 1 5.488-5.2 5.351 5.351 0 0 1 -5.488 5.2z"/><path d="m86.077 63.123-.215-2.958-2.725-.356a7.744 7.744 0 0 0 -.805-1.6l1.343-2.393-2.246-1.946-2.174 1.676a7.765 7.765 0 0 0 -1.7-.565l-.746-2.644-2.957.215-.357 2.724a7.721 7.721 0 0 0 -1.6.8l-2.4-1.342-1.942 2.246 1.676 2.174a7.44 7.44 0 0 0 -.559 1.7l-2.65.747.215 2.957 2.73.356a7.469 7.469 0 0 0 .8 1.6l-1.342 2.4 2.246 1.941 2.179-1.675a7.416 7.416 0 0 0 1.7.559l.747 2.65 2.957-.215.356-2.73a7.472 7.472 0 0 0 1.605-.8l2.387 1.349 1.941-2.246-1.675-2.179a7.724 7.724 0 0 0 .565-1.7zm-9.728 3.356a4.124 4.124 0 1 1 3.813-4.415 4.128 4.128 0 0 1 -3.813 4.415z"/></g></g></svg>