<svg height="512" viewBox="0 0 128 128" width="512" xmlns="http://www.w3.org/2000/svg"><g id="Circle_Grid" data-name="Circle Grid"><circle cx="64" cy="64" fill="#ea8953" r="64"/></g><g id="icon"><rect fill="#62667c" height="79.179" rx="3.734" width="82" x="23" y="24.411"/><path d="m27.515 39.799h72.971v59.276h-72.971z" fill="#eeefee"/><circle cx="77.568" cy="32.105" fill="#2cbfae" r="2.194"/><circle cx="96.878" cy="32.105" fill="#ef5261" r="2.194"/><circle cx="87.223" cy="32.105" fill="#f6c863" r="2.194"/><rect fill="#828a9e" height="3.376" rx="1.688" width="36.375" x="30.625" y="30.417"/><path d="m84.313 72.464v-6.054l-5.5-1.129a15.831 15.831 0 0 0 -1.4-3.387l3.087-4.674-4.287-4.287-4.674 3.09a15.831 15.831 0 0 0 -3.387-1.4l-1.129-5.495h-6.05l-1.129 5.492a15.734 15.734 0 0 0 -3.375 1.4l-4.686-3.09-4.283 4.29 3.09 4.674a15.254 15.254 0 0 0 -1.39 3.387l-5.512 1.129v6.054l5.512 1.129a15.16 15.16 0 0 0 1.391 3.375l-3.091 4.686 4.287 4.287 4.686-3.09a15.16 15.16 0 0 0 3.375 1.391l1.129 5.507h6.054l1.129-5.507a15.254 15.254 0 0 0 3.387-1.391l4.674 3.09 4.279-4.287-3.09-4.686a15.734 15.734 0 0 0 1.4-3.375zm-20.308 5.395a8.422 8.422 0 1 1 8.418-8.427 8.431 8.431 0 0 1 -8.418 8.427z" fill="#575b6d"/></g></svg>