<svg height="512" viewBox="0 0 128 128" width="512" xmlns="http://www.w3.org/2000/svg"><g id="Circle_Grid" data-name="Circle Grid"><circle cx="64" cy="64" fill="#f6c863" r="64"/></g><g id="icon"><path d="m106 67.571a13.929 13.929 0 0 1 -13.809 14.05h-56.382a14.079 14.079 0 0 1 -3-27.77 19.08 19.08 0 0 1 17.955-24.359 18.682 18.682 0 0 1 16.923 10.908 13.656 13.656 0 0 1 9.432-3.79 13.93 13.93 0 0 1 13.808 14.058 14.239 14.239 0 0 1 -.3 2.942 11.8 11.8 0 0 1 1.567-.1 13.931 13.931 0 0 1 13.806 14.061z" fill="#69b0ee"/><path d="m77.97 76.198-13.97-17.78-13.97 17.78h7.08v22.31h13.78v-22.31z" fill="#eeefee"/></g></svg>