<svg height="512" viewBox="0 0 128 128" width="512" xmlns="http://www.w3.org/2000/svg"><g id="Circle_Grid" data-name="Circle Grid"><circle cx="64" cy="64" fill="#3b5059" r="64"/></g><g id="icon"><path d="m44.567 69.534c0 12.1 13.485 21.91 30.112 21.91a39.345 39.345 0 0 0 13.905-2.471c9.411 7 16.916 4.6 16.916 4.6a26.541 26.541 0 0 1 -8.359-9.437c4.771-3.877 7.662-8.99 7.662-14.6 0-12.092-13.485-21.9-30.124-21.9s-30.112 9.806-30.112 21.898z" fill="#ef5261"/><path d="m87.241 57.293c0 12.862-14.328 23.28-31.994 23.28a41.818 41.818 0 0 1 -14.774-2.625c-10 7.443-17.973 4.887-17.973 4.887a28.217 28.217 0 0 0 8.882-10.027c-5.07-4.119-8.142-9.552-8.142-15.515 0-12.847 14.328-23.265 32.007-23.265s31.994 10.418 31.994 23.265z" fill="#f2c55a"/><g fill="#eeefee"><path d="m42.437 57.294a4.3 4.3 0 1 1 -4.3-4.3 4.3 4.3 0 0 1 4.3 4.3z"/><path d="m59.172 57.294a4.3 4.3 0 1 1 -4.3-4.3 4.3 4.3 0 0 1 4.3 4.3z"/><path d="m75.906 57.294a4.3 4.3 0 1 1 -4.3-4.3 4.3 4.3 0 0 1 4.3 4.3z"/></g></g></svg>