<svg height="512" viewBox="0 0 128 128" width="512" xmlns="http://www.w3.org/2000/svg"><g id="Circle_Grid" data-name="Circle Grid"><circle cx="64" cy="64" fill="#ea8953" r="64"/></g><g id="icon"><rect fill="#62667c" height="79.179" rx="3.734" width="82" x="23" y="24.411"/><path d="m27.515 39.799h72.971v59.276h-72.971z" fill="#eeefee"/><circle cx="77.568" cy="32.105" fill="#2cbfae" r="2.194"/><circle cx="96.878" cy="32.105" fill="#ef5261" r="2.194"/><circle cx="87.223" cy="32.105" fill="#f6c863" r="2.194"/><rect fill="#828a9e" height="3.376" rx="1.688" width="36.375" x="30.625" y="30.417"/><g fill="#62667c"><path d="m84.175 65.677a9.274 9.274 0 1 1 -1.984-15.887l-5.241 4.01a2.082 2.082 0 0 0 -.388 2.919l3 3.918a2.082 2.082 0 0 0 2.919.389l5.241-4.01a9.267 9.267 0 0 1 -3.547 8.661z"/><path d="m55.1 87.926a9.273 9.273 0 1 0 -14.815-6.068l5.241-4.01a2.082 2.082 0 0 1 2.919.388l3 3.919a2.08 2.08 0 0 1 -.389 2.918l-5.24 4.01a9.263 9.263 0 0 0 9.284-1.157z"/><path d="m59.062 56.167h8.372v27.691h-8.372z" transform="matrix(.608 .794 -.794 .608 80.417 -22.762)"/></g></g></svg>