<svg height="512" viewBox="0 0 128 128" width="512" xmlns="http://www.w3.org/2000/svg"><g id="Circle_Grid" data-name="Circle Grid"><circle cx="64" cy="64" fill="#ef5261" r="64"/></g><g id="icon"><path d="m23 41.607v57.915a3.525 3.525 0 0 0 3.526 3.525h74.948a3.525 3.525 0 0 0 3.526-3.525v-57.915z" fill="#eeefee"/><path d="m101.474 24.953h-74.948a3.525 3.525 0 0 0 -3.526 3.525v13.8h82v-13.8a3.525 3.525 0 0 0 -3.526-3.525z" fill="#62667c"/><circle cx="72.981" cy="33.613" fill="#2cbfae" r="3.174"/><circle cx="84.205" cy="33.613" fill="#f6c863" r="3.174"/><circle cx="95.428" cy="33.613" fill="#ef5261" r="3.174"/><g fill="#dbd8dd"><path d="m28.63 48.143h70.74v24.494h-70.74z"/><path d="m48.029 87.473a9.7 9.7 0 1 1 -9.695-9.694 9.7 9.7 0 0 1 9.695 9.694z"/><path d="m73.7 87.473a9.7 9.7 0 1 1 -9.694-9.694 9.695 9.695 0 0 1 9.694 9.694z"/><path d="m99.37 87.473a9.7 9.7 0 1 1 -9.694-9.694 9.695 9.695 0 0 1 9.694 9.694z"/></g></g></svg>