<svg height="512" viewBox="0 0 128 128" width="512" xmlns="http://www.w3.org/2000/svg"><g id="Circle_Grid" data-name="Circle Grid"><circle cx="64" cy="64" fill="#69b0ee" r="64"/></g><g id="icon"><rect fill="#62667c" height="79.179" rx="3.734" width="82" x="23" y="24.411"/><path d="m27.515 39.799h72.971v59.276h-72.971z" fill="#eeefee"/><circle cx="77.568" cy="32.105" fill="#2cbfae" r="2.194"/><circle cx="96.878" cy="32.105" fill="#ef5261" r="2.194"/><circle cx="87.223" cy="32.105" fill="#f6c863" r="2.194"/><rect fill="#828a9e" height="3.376" rx="1.688" width="36.375" x="30.625" y="30.417"/><g fill="#dbd8dd"><path d="m32.554 44.755h39.893v19.438h-39.893z"/><path d="m32.554 76.959h39.893v2.5h-39.893z"/><path d="m32.554 69.63h39.893v2.5h-39.893z"/><path d="m32.554 84.289h39.893v2.5h-39.893z"/><path d="m32.554 91.619h24.719v2.5h-24.719z"/><path d="m77.947 44.755h17.5v19.245h-17.5z"/><path d="m77.947 69.837h17.5v24.282h-17.5z"/></g></g></svg>