<svg height="512" viewBox="0 0 128 128" width="512" xmlns="http://www.w3.org/2000/svg"><g id="Circle_Grid" data-name="Circle Grid"><circle cx="64" cy="64" fill="#3b5059" r="64"/></g><g id="icon"><path d="m101.554 46.265v44.735a5.253 5.253 0 0 1 -.367 1.93 4.619 4.619 0 0 1 -4.2 2.885h-65.949a4.624 4.624 0 0 1 -4.221-2.885 5.253 5.253 0 0 1 -.367-1.93v-54a4.7 4.7 0 0 1 4.588-4.815h15.768a4.331 4.331 0 0 1 3.644 2.032l4.684 7.232h41.851a4.694 4.694 0 0 1 4.569 4.816z" fill="#eab54e"/><path d="m31.419 45.74h65.167v20.46h-65.167z" fill="#eeefee"/><path d="m106.893 55.975-5.339 34.719-.367 2.235a4.619 4.619 0 0 1 -4.2 2.885h-65.949a4.624 4.624 0 0 1 -4.221-2.885l-.367-2.235-5.339-34.719a4.069 4.069 0 0 1 3.874-4.753h78.015a4.082 4.082 0 0 1 3.893 4.753z" fill="#f6c863"/><path d="m72.241 76.985h-16.481v-9.5a8.241 8.241 0 0 1 16.481 0zm-13.3-3.176h10.123v-6.319a5.064 5.064 0 0 0 -10.128 0z" fill="#eeefee"/><rect fill="#575b6d" height="15.035" rx=".605" width="21.796" x="53.102" y="72.75"/><g fill="#eeefee"><path d="m65.975 78.715a1.975 1.975 0 1 1 -1.975-1.979 1.97 1.97 0 0 1 1.975 1.979z"/><path d="m65.79 83.8h-3.58l.905-3.945h1.77z"/></g></g></svg>