<svg height="512" viewBox="0 0 128 128" width="512" xmlns="http://www.w3.org/2000/svg"><g id="Circle_Grid" data-name="Circle Grid"><circle cx="64" cy="64" fill="#f6c863" r="64"/></g><g id="icon"><path d="m30.739 33.136h66.522a3.6 3.6 0 0 1 3.6 3.6v47.64a0 0 0 0 1 0 0h-73.718a0 0 0 0 1 0 0v-47.644a3.6 3.6 0 0 1 3.596-3.596z" fill="#62667c"/><path d="m42.875 26.394h42.251v64.725h-42.251z" fill="#69b0ee" transform="matrix(0 1 -1 0 122.756 -5.244)"/><path d="m22.8 84.376h82.4a1.8 1.8 0 0 1 1.8 1.8v3.3a5.394 5.394 0 0 1 -5.394 5.394h-75.212a5.394 5.394 0 0 1 -5.394-5.4v-3.3a1.8 1.8 0 0 1 1.8-1.8z" fill="#4f5363"/><path d="m72.68 88.309h-17.36l-2.051-3.933h21.462z" fill="#62667c"/><g fill="#eeefee" opacity=".5"><path d="m40.772 79.882h-2.346l26.417-42.251h2.346z"/><path d="m61.977 79.882h-8.708l26.416-42.251h8.709z"/></g></g></svg>