<svg height="512" viewBox="0 0 128 128" width="512" xmlns="http://www.w3.org/2000/svg"><g id="Circle_Grid" data-name="Circle Grid"><circle cx="64" cy="64" fill="#ea8953" r="64"/></g><g id="icon"><path d="m23 41.107v57.915a3.525 3.525 0 0 0 3.526 3.525h74.948a3.525 3.525 0 0 0 3.526-3.525v-57.915z" fill="#eeefee"/><path d="m101.474 25.453h-74.948a3.525 3.525 0 0 0 -3.526 3.525v13.8h82v-13.8a3.525 3.525 0 0 0 -3.526-3.525z" fill="#62667c"/><circle cx="72.981" cy="34.113" fill="#2cbfae" r="3.174"/><circle cx="84.205" cy="34.113" fill="#f6c863" r="3.174"/><circle cx="95.428" cy="34.113" fill="#ef5261" r="3.174"/><g fill="#dbd8dd"><path d="m27.933 48.746h23.067v48.186h-23.067z"/><path d="m55.75 69.127h44.317v27.804h-44.317z" transform="matrix(-1 0 0 -1 155.817 166.059)"/><path d="m55.75 48.746h44.317v15.881h-44.317z"/></g></g></svg>