<svg height="512" viewBox="0 0 128 128" width="512" xmlns="http://www.w3.org/2000/svg"><g id="Circle_Grid" data-name="Circle Grid"><circle cx="64" cy="64" fill="#3b5059" r="64"/></g><g id="icon"><path d="m88.675 23.506v71.842a1.041 1.041 0 0 1 -1.075 1.007h-56.349a1.041 1.041 0 0 1 -1.071-1.007v-71.842a1.041 1.041 0 0 1 1.071-1.006h56.349a1.041 1.041 0 0 1 1.075 1.006z" fill="#eeefee"/><g fill="#dbd8dd"><path d="m34.307 27.598h17.669v17.33h-17.669z"/><path d="m55.992 43.041h28.556v1.887h-28.556z"/><path d="m34.307 50.762h50.24v1.887h-50.24z"/><path d="m34.307 58.484h50.24v1.887h-50.24z"/><path d="m34.307 66.205h50.24v1.887h-50.24z"/><path d="m34.307 73.927h50.24v1.887h-50.24z"/><path d="m34.307 81.648h50.24v1.887h-50.24z"/><path d="m34.307 89.37h37.479v1.887h-37.479z"/><path d="m55.992 35.319h28.556v1.887h-28.556z"/><path d="m55.992 27.598h28.556v1.887h-28.556z"/></g><circle cx="87.471" cy="95.151" fill="#ef5261" r="10.349"/><path d="m92.833 95.126h-2.839v-6.77h-5.046v6.762h-2.838l5.361 6.829z" fill="#eeefee"/></g></svg>