<svg height="512" viewBox="0 0 128 128" width="512" xmlns="http://www.w3.org/2000/svg"><g id="Circle_Grid" data-name="Circle Grid"><circle cx="64" cy="64" fill="#2cbfae" r="64"/></g><g id="icon"><path d="m22 38.908v53.771a3.273 3.273 0 0 0 3.273 3.273h69.586a3.273 3.273 0 0 0 3.273-3.273v-53.771z" fill="#eeefee"/><path d="m94.859 24.374h-69.586a3.274 3.274 0 0 0 -3.273 3.273v12.809h76.132v-12.809a3.274 3.274 0 0 0 -3.273-3.273z" fill="#62667c"/><circle cx="68.404" cy="32.415" fill="#2cbfae" r="2.947"/><circle cx="78.825" cy="32.415" fill="#f6c863" r="2.947"/><circle cx="89.245" cy="32.415" fill="#ef5261" r="2.947"/><circle cx="95.641" cy="93.266" fill="#ef5261" r="10.359"/><path d="m93.784 86.448h3.714v13.636h-3.714z" fill="#eeefee"/><path d="m93.784 86.448h3.714v13.636h-3.714z" fill="#eeefee" transform="matrix(0 1 -1 0 188.907 -2.374)"/><g fill="#dbd8dd"><path d="m27.548 46.83h65.036v2.708h-65.036z"/><path d="m27.548 55.495h65.036v2.708h-65.036z"/><path d="m27.548 64.161h32.518v2.708h-32.518z"/><path d="m27.548 72.826h32.518v2.708h-32.518z"/></g></g></svg>