<svg height="512" viewBox="0 0 128 128" width="512" xmlns="http://www.w3.org/2000/svg"><g id="Circle_Grid" data-name="Circle Grid"><circle cx="64" cy="64" fill="#ea8953" r="64"/></g><g id="icon"><rect fill="#62667c" height="79.179" rx="3.734" width="82" x="23" y="24.411"/><path d="m27.515 39.799h72.971v59.276h-72.971z" fill="#eeefee"/><circle cx="77.568" cy="32.105" fill="#2cbfae" r="2.194"/><circle cx="96.878" cy="32.105" fill="#ef5261" r="2.194"/><circle cx="87.223" cy="32.105" fill="#f6c863" r="2.194"/><rect fill="#828a9e" height="3.376" rx="1.688" width="36.375" x="30.625" y="30.417"/><g fill="#575b6d"><path d="m63.985 49.25a24.715 24.715 0 0 0 -6.332.933l1.411 3.81a15.823 15.823 0 0 1 4.921-.774 16.218 16.218 0 0 1 9.585 29.3l-.139 1.905 4.237-.159a19.442 19.442 0 0 0 3.155-3.71 19.98 19.98 0 0 0 3.354-11.113 20.216 20.216 0 0 0 -20.192-20.192zm5.2 35.541a15.829 15.829 0 0 1 -5.2.864 16.216 16.216 0 0 1 -13.861-24.627 1.85 1.85 0 0 1 .119-.179 16.275 16.275 0 0 1 4.2-4.515l.05-1.012.03-.7-4.515.288a19.151 19.151 0 0 0 -2.659 3.135c-.04.05-.08.109-.119.169a20.171 20.171 0 0 0 16.755 31.409 19.751 19.751 0 0 0 6.2-.982z"/><path d="m54.559 53.903-.039.715-.03.704-.05 1.012-.377 8.236-3.82-3.721-.526-.506-2.371-2.302-.526-.516-3.016-2.937 5.794-.367z"/><path d="m84.197 84.017-6.529.248-4.237.159.139-1.905.625-8.751 3.781 3.869 2.847 2.918z"/></g></g></svg>