<svg height="512" viewBox="0 0 128 128" width="512" xmlns="http://www.w3.org/2000/svg"><g id="Circle_Grid" data-name="Circle Grid"><circle cx="64" cy="64" fill="#ea8953" r="64"/></g><g id="icon"><rect fill="#62667c" height="79.179" rx="3.734" width="82" x="23" y="24.411"/><path d="m27.515 39.799h72.971v59.276h-72.971z" fill="#eeefee"/><circle cx="77.568" cy="32.105" fill="#2cbfae" r="2.194"/><circle cx="96.878" cy="32.105" fill="#ef5261" r="2.194"/><circle cx="87.223" cy="32.105" fill="#f6c863" r="2.194"/><rect fill="#828a9e" height="3.376" rx="1.688" width="36.375" x="30.625" y="30.417"/><path d="m58.312 68.713h-10.859v-10.859a10.863 10.863 0 0 1 10.859 10.859z" fill="#ef5261"/><path d="m56.865 70.161a10.86 10.86 0 1 1 -10.859-10.861v10.861z" fill="#575b6d"/><g fill="#dbd8dd"><path d="m87.627 55.687h5.227v27.5h-5.227z"/><path d="m76.649 63.233h5.227v19.954h-5.227z"/><path d="m65.672 71.02h5.227v12.167h-5.227z"/></g></g></svg>