<svg height="512" viewBox="0 0 128 128" width="512" xmlns="http://www.w3.org/2000/svg"><g id="Circle_Grid" data-name="Circle Grid"><circle cx="64" cy="64" fill="#ef5261" r="64"/></g><g id="icon"><path d="m99.845 34.676v71.842a1.041 1.041 0 0 1 -1.071 1.007h-56.353a1.04 1.04 0 0 1 -1.071-1.007v-71.842a1.04 1.04 0 0 1 1.071-1.006h56.353a1.041 1.041 0 0 1 1.071 1.006z" fill="#eeefee"/><path d="m93.247 28.079v71.842a1.039 1.039 0 0 1 -1.071 1.006h-56.352a1.039 1.039 0 0 1 -1.071-1.006v-71.842a1.039 1.039 0 0 1 1.071-1.006h56.352a1.039 1.039 0 0 1 1.071 1.006z" fill="#dbd8dd"/><path d="m86.65 21.482v71.842a1.04 1.04 0 0 1 -1.071 1.006h-56.353a1.041 1.041 0 0 1 -1.071-1.006v-71.842a1.041 1.041 0 0 1 1.071-1.007h56.353a1.04 1.04 0 0 1 1.071 1.007z" fill="#eeefee"/><g fill="#dbd8dd"><path d="m32.283 25.573h17.669v17.33h-17.669z"/><path d="m32.283 48.738h50.24v1.887h-50.24z"/><path d="m32.283 56.459h50.24v1.887h-50.24z"/><path d="m32.283 64.181h50.24v1.887h-50.24z"/><path d="m32.283 71.902h50.24v1.887h-50.24z"/><path d="m32.283 79.624h50.24v1.887h-50.24z"/><path d="m32.283 87.345h37.479v1.887h-37.479z"/></g></g></svg>