<svg width="141" height="225" viewBox="0 0 141 225" fill="none" xmlns="http://www.w3.org/2000/svg">
<path fill-rule="evenodd" clip-rule="evenodd" d="M75.0001 223C73.0001 197.5 124.5 182.5 109 137.5C119.5 147 117 165.5 111 181C125 164.5 131 138 119 128.5C124.5 130 128.425 133.609 130 143.5C149.5 113 139 72.9999 103.5 76.4999C117 69.4999 126.511 73.0841 136.5 86C130 60.5 84.5 44.4999 35.5 62.9999C36.4998 73.9999 49.4998 85.5 67.9998 85.5C96.6264 82.0278 104.768 83.972 109 92.4999C100.5 93.4999 89.9998 94.9999 82.9998 89.4999C82.4998 94.4999 90.4998 103.5 86.9998 105.5C81.402 102.608 79.1107 103.124 75.9998 106.5C74.1413 107.682 73.3305 107.421 71.9998 106.5C68.7129 103.311 66.569 102.712 61.9998 104.5C57.4675 101.927 57.6963 99.4296 61.9998 93.4999C52.935 95.3836 47.901 95.4309 38.9998 93.4999C42.9998 105 47.3069 108.543 55.9999 100.5V107.5C9.99981 134 11.4998 159 35 177.5C33.3338 173.236 33.4431 167.304 34 155.5C38.5 180.5 45.0001 192.5 57.0001 201C57.0001 181 70.5001 185 70.5001 171.5C69.8276 165.354 67.7329 160.559 65.0001 161C62.2672 161.441 62.5055 163.429 65.5001 169.5C59.6383 165.172 57.4716 162.328 57.0001 156V154.5C60.5001 123.5 104 139.5 89.0001 165.5L87.0001 160.5C89.0001 172 44.5001 193 75.0001 223ZM108.5 97.4999C99.5249 104.575 95.5138 105.91 90.9998 101.5C92.0805 109.412 95.9998 113.5 102 113.5C109 112.5 111.5 100.5 108.5 97.4999ZM104 124.5L97.9998 123C104.56 131.853 100.5 143 95.9998 145.5C93.4998 137.5 76.1085 132.723 76.9998 121.5C77.4366 116 82.9998 111.5 87.9998 111.5C96.182 113.428 98.9467 117.477 104 124.5ZM70.9998 117.5C67.1731 113.512 63.9998 111 56.9998 110.5C47.4407 115.815 45.3848 122.855 42.9998 130.5C45.0444 137.351 46.9998 141 50.9998 145C55.9999 139 65.4998 136 70.9998 128.5C72.3166 123.419 72.8024 120.695 70.9998 117.5Z" fill="#3E5490" stroke="#3E5490"/>
<path d="M19 14C11 14 11 26 19 26C19.984 26 20.847 25.8184 21.5889 25.5C26.879 23.2295 26.016 14 19 14Z" fill="#F5D569"/>
<path fill-rule="evenodd" clip-rule="evenodd" d="M33.5 58.5C66.6875 47.6716 85.691 46.7286 118.5 58C123.729 44.5998 126.405 36.5372 133 26.0719C132.829 26.0537 132.662 26.0296 132.5 26C131.573 25.8307 130.783 25.4794 130.13 25C113 48 105.5 46.5 105.794 25.8326C105.336 25.8326 104.905 25.7934 104.5 25.7194C103.91 25.6116 103.375 25.4301 102.896 25.1887C91.9306 44.9462 80.9858 36.4257 76.5 12.9839C76.337 12.9946 76.1703 13 76 13C75.8297 13 75.663 12.9946 75.5 12.9839C71 37.5 62 44.5 48.5 25.9336C48.1819 25.9772 47.8485 26 47.5 26C46.9641 26 46.4641 25.9461 46 25.8457C46.8912 36.2335 44.5 42 40 42C35.5 42 27.4496 32.9949 21.5889 25.5C20.847 25.8184 19.984 26 19 26L33.5 58.5ZM72.5 39.5L76.5 34L80.5 39.5L76.5 45L72.5 39.5ZM63.5 41C61.5 41 61.5 44 63.5 44C65.5 44 65.5 41 63.5 41ZM89.5 41C87.5 41 87.5 44 89.5 44C91.5 44 91.5 41 89.5 41ZM111 46C109 46 109 49 111 49C113 49 113 46 111 46ZM43 45.5C41 45.5 41 48.5 43 48.5C45 48.5 45 45.5 43 45.5ZM49.5 43.5L50 38.5L53.5 42L53 47L49.5 43.5ZM99.5 42.5L100 47.5L103.5 44L103 39L99.5 42.5ZM118 48V53L120 48.5L122 44L118 48ZM34.4999 48V53L32.4999 48.5L30.4999 44L34.4999 48Z" fill="#F5D569"/>
<path d="M46 25.8457C46.4641 25.9461 46.9641 26 47.5 26C47.8485 26 48.1819 25.9772 48.5 25.9336C55.4848 24.9772 55.1515 14 47.5 14C40.0359 14 39.5359 24.4461 46 25.8457Z" fill="#F5D569"/>
<path d="M75.5 12.9839C75.663 12.9946 75.8297 13 76 13C76.1703 13 76.337 12.9946 76.5 12.9839C83.9964 12.4946 83.8297 1 76 1C68.1703 1 68.0036 12.4946 75.5 12.9839Z" fill="#F5D569"/>
<path d="M105.794 25.8326C113.794 25.8326 113.794 13.8326 105.794 13.8326C98.9176 13.8326 97.9516 22.6978 102.896 25.1887C103.375 25.4301 103.91 25.6116 104.5 25.7194C104.905 25.7934 105.336 25.8326 105.794 25.8326Z" fill="#F5D569"/>
<path d="M133.794 26.1132C141.794 26.1132 141.794 14.1132 133.794 14.1132C127.298 14.1132 126.077 22.0248 130.13 25C130.783 25.4794 131.573 25.8307 132.5 26C132.662 26.0296 132.829 26.0537 133 26.0719C133.255 26.0991 133.52 26.1132 133.794 26.1132Z" fill="#F5D569"/>
<path d="M19 26C11 26 11 14 19 14C26.016 14 26.879 23.2295 21.5889 25.5M19 26L33.5 58.5C66.6875 47.6716 85.691 46.7286 118.5 58C123.729 44.5997 126.405 36.5372 133 26.0719M19 26C19.984 26 20.847 25.8184 21.5889 25.5M105.794 25.8326C113.794 25.8326 113.794 13.8326 105.794 13.8326C98.9176 13.8326 97.9516 22.6978 102.896 25.1887M105.794 25.8326C105.336 25.8326 104.905 25.7934 104.5 25.7194C103.91 25.6116 103.375 25.4301 102.896 25.1887M105.794 25.8326C105.5 46.5 113 48 130.13 25M21.5889 25.5C27.4496 32.9949 35.5 42 40 42C44.5 42 46.8912 36.2335 46 25.8457M46 25.8457C46.4641 25.9461 46.9641 26 47.5 26C47.8485 26 48.1818 25.9772 48.5 25.9336M46 25.8457C39.5359 24.4461 40.0359 14 47.5 14C55.1515 14 55.4848 24.9772 48.5 25.9336M48.5 25.9336C62 44.5 71 37.5 75.5 12.9839M75.5 12.9839C75.663 12.9946 75.8297 13 76 13C76.1703 13 76.337 12.9946 76.5 12.9839M75.5 12.9839C68.0036 12.4946 68.1703 1 76 1C83.8297 1 83.9964 12.4946 76.5 12.9839M76.5 12.9839C80.9858 36.4257 91.9306 44.9462 102.896 25.1887M103 25C102.965 25.0632 102.931 25.1261 102.896 25.1887M130.13 25C130.783 25.4794 131.573 25.8307 132.5 26C132.662 26.0296 132.829 26.0537 133 26.0719M130.13 25C126.077 22.0248 127.298 14.1132 133.794 14.1132C141.794 14.1132 141.794 26.1132 133.794 26.1132C133.52 26.1132 133.255 26.0991 133 26.0719M76.5 34L72.5 39.5L76.5 45L80.5 39.5L76.5 34ZM63.5 41C61.5 41 61.5 44 63.5 44C65.5 44 65.5 41 63.5 41ZM89.5 41C87.5 41 87.5 44 89.5 44C91.5 44 91.5 41 89.5 41ZM111 46C109 46 109 49 111 49C113 49 113 46 111 46ZM43 45.5C41 45.5 41 48.5 43 48.5C45 48.5 45 45.5 43 45.5ZM50 38.5L49.5 43.5L53 47L53.5 42L50 38.5ZM100 47.5L99.5 42.5L103 39L103.5 44L100 47.5ZM118 53V48L122 44L120 48.5L118 53ZM34.4999 53V48L30.4999 44L32.4999 48.5L34.4999 53Z" stroke="#F5D569"/>
<path d="M37 87C40.3475 83.867 42.6343 82.7862 48 83C30 66.5 13.5 71.5 1 91.5C15.2647 81.8497 23.1349 81.4668 37 87Z" fill="#C0D6F3"/>
<path d="M12.9997 141.5C-6.5 110 13.8409 84.7349 35.9997 90.5C34.9862 99.4029 35.112 104.311 39.9997 112.5C23.6054 117.838 19.3614 125.895 12.9997 141.5Z" fill="#C0D6F3"/>
<path d="M37 87C40.3475 83.867 42.6343 82.7862 48 83C30 66.5 13.5 71.5 1 91.5C15.2647 81.8497 23.1349 81.4668 37 87Z" stroke="#C0D6F3"/>
<path d="M12.9997 141.5C-6.5 110 13.8409 84.7349 35.9997 90.5C34.9862 99.4029 35.112 104.311 39.9997 112.5C23.6054 117.838 19.3614 125.895 12.9997 141.5Z" stroke="#C0D6F3"/>
</svg>
